<?xml version="1.0" encoding="UTF-8" standalone="no"?>
<svg
   width="24"
   height="24"
   version="1"
   id="svg7"
   sodipodi:docname="docs.svg"
   inkscape:version="1.4.2 (ebf0e940d0, 2025-05-08)"
   xml:space="preserve"
   xmlns:inkscape="http://www.inkscape.org/namespaces/inkscape"
   xmlns:sodipodi="http://sodipodi.sourceforge.net/DTD/sodipodi-0.dtd"
   xmlns:xlink="http://www.w3.org/1999/xlink"
   xmlns="http://www.w3.org/2000/svg"
   xmlns:svg="http://www.w3.org/2000/svg"><defs
     id="defs1"><linearGradient
       id="linearGradient3"
       inkscape:collect="always"><stop
         style="stop-color:#0047ab;stop-opacity:1;"
         offset="0"
         id="stop3" /><stop
         style="stop-color:#8734e2;stop-opacity:1;"
         offset="1"
         id="stop4" /></linearGradient><linearGradient
       id="linearGradient1"
       inkscape:collect="always"><stop
         style="stop-color:#f3ab87;stop-opacity:1;"
         offset="0"
         id="stop1" /><stop
         style="stop-color:#a06787;stop-opacity:1;"
         offset="0.14566338"
         id="stop5" /><stop
         style="stop-color:#684a99;stop-opacity:1;"
         offset="0.3851482"
         id="stop6" /><stop
         style="stop-color:#4172bd;stop-opacity:1;"
         offset="0.73203933"
         id="stop2" /></linearGradient><linearGradient
       inkscape:collect="always"
       xlink:href="#linearGradient1"
       id="linearGradient2"
       x1="17.170399"
       y1="19.493507"
       x2="2.9740224"
       y2="1.4594705"
       gradientUnits="userSpaceOnUse" /><linearGradient
       inkscape:collect="always"
       xlink:href="#linearGradient3"
       id="linearGradient4"
       x1="-7.3583031"
       y1="24.616745"
       x2="34.335659"
       y2="-10.171739"
       gradientUnits="userSpaceOnUse" /><style
       type="text/css"
       id="current-color-scheme">.ColorScheme-Text { color:#232629; }</style></defs><sodipodi:namedview
     id="namedview1"
     pagecolor="#ffffff"
     bordercolor="#000000"
     borderopacity="0.25"
     inkscape:showpageshadow="2"
     inkscape:pageopacity="0.0"
     inkscape:pagecheckerboard="0"
     inkscape:deskcolor="#d1d1d1"
     inkscape:zoom="12.239584"
     inkscape:cx="-0.81702126"
     inkscape:cy="14.052766"
     inkscape:window-width="1920"
     inkscape:window-height="1011"
     inkscape:window-x="0"
     inkscape:window-y="0"
     inkscape:window-maximized="1"
     inkscape:current-layer="svg7" /><path
     style="opacity:0.2"
     d="m 5,2.5 c -0.554,0 -1,0.446 -1,1 v 18 c 0,0.554 0.446,1 1,1 h 14 c 0.554,0 1,-0.446 1,-1 V 8.5 L 14.5,8 14,2.5 Z"
     id="path1" /><path
     fill="#c03630"
     d="m5 2c-0.554 0-1 0.446-1 1v18c0 0.554 0.446 1 1 1h14c0.554 0 1-0.446 1-1v-13l-5.5-0.5-0.5-5.5z"
     id="path2"
     style="fill:url(#linearGradient2);fill-opacity:1" /><path
     fill="#fff"
     style="opacity:0.2"
     d="m5 2c-0.554 0-1 0.446-1 1v0.5c0-0.554 0.446-1 1-1h9l5.5 5.5h0.5l-6-6z"
     id="path3" /><path
     style="opacity:0.2;fill:#000000;fill-opacity:1"
     d="m 14,2.5 v 5 c 0,0.5523 0.44772,1 1,1 h 5 z"
     id="path4" /><path
     fill="#f36961"
     d="m14 2v5c0 0.5523 0.44772 1 1 1h5l-6-6z"
     id="path5"
     style="fill:url(#linearGradient4);fill-opacity:1;opacity:1" /><path
     class="ColorScheme-Text"
     d="m 12.000007,8.5684838 c -2.4905523,-1.1e-6 -4.5095818,2.0190272 -4.5095797,4.5095802 -2.1e-6,0.927907 0.2802596,1.790379 0.7607377,2.507344 l -1.1780027,1.434088 1.8136319,-0.678983 c 0.8094185,0.77262 1.9058888,1.247133 3.1132128,1.247133 2.490554,2e-6 4.509583,-2.019028 4.509581,-4.509582 0,-0.523492 -0.0892,-1.026142 -0.253228,-1.4936 0.125594,-0.135412 0.239321,-0.275196 0.335809,-0.418165 0.157791,-0.233801 0.274131,-0.483176 0.314771,-0.739775 0.01774,-0.115652 0.02366,-0.224613 0.01759,-0.326642 C 16.91843,9.997932 16.90039,9.903259 16.87035,9.816595 16.84012,9.729355 16.79848,9.652269 16.747342,9.585458 16.695732,9.518018 16.636085,9.46324 16.572186,9.419168 16.441691,9.329175 16.29403,9.2843115 16.154921,9.2627224 c -0.149852,-0.023252 -0.303733,-0.021619 -0.441835,-0.010278 -0.238748,0.019575 -0.465818,0.07124 -0.612259,0.1073746 -0.0699,0.01726 -0.134812,0.03486 -0.192964,0.0517 -0.08301,0.02405 -0.14757,0.04464 -0.1977,0.06191 C 13.955721,8.9053133 13.017176,8.5684907 12.000011,8.5684918 Z m -0.0269,0.3938207 c 0.529342,0 1.035312,0.099906 1.500138,0.2819328 -0.02594,0.020842 -0.04998,0.044562 -0.07169,0.071012 L 8.4985377,15.28424 C 8.0813509,14.627229 7.8572753,13.862462 7.8572753,13.078067 c 0,-2.273085 1.8427504,-4.1157602 4.1158357,-4.1157591 z m 3.415135,0.4981925 c 0.101538,-6.49e-4 0.211983,0.0037 0.321834,0.01661 0.127838,0.01513 0.255522,0.04221 0.366543,0.08716 0.104474,0.0423 0.184869,0.09666 0.238201,0.161632 0.02534,0.03088 0.04412,0.06349 0.05749,0.09821 0.01312,0.03408 0.02188,0.07231 0.02585,0.115793 0.004,0.0435 0.0033,0.09473 -0.0042,0.155094 -0.0075,0.06077 -0.02218,0.131063 -0.04636,0.212277 -0.04468,0.143835 -0.136285,0.301907 -0.277576,0.473245 -0.03557,0.04315 -0.07381,0.08657 -0.114516,0.130145 -0.297748,-0.542223 -0.703753,-1.016621 -1.1889,-1.394035 0.04444,-0.0065 0.09693,-0.01383 0.158701,-0.02195 0.05894,-0.0078 0.12459,-0.01534 0.194468,-0.02149 0.07428,-0.0065 0.166942,-0.01206 0.268482,-0.0127 z m -1.120444,0.200329 c 0.579495,0.389915 1.05445,0.923346 1.373823,1.549355 -0.04516,0.0391 -0.09195,0.07826 -0.140215,0.117448 -0.369485,0.299956 -0.808681,0.587113 -1.233608,0.843018 z m -0.977675,1.330842 v 1.71557 c -0.611251,0.308501 -1.255658,0.592988 -1.877953,0.854892 -0.121224,0.05101 -0.238716,0.100031 -0.352191,0.147129 z m 2.631403,0.920868 c 0.108905,0.369531 0.167342,0.760722 0.167342,1.165528 0,2.273087 -1.842677,4.115762 -4.115761,4.115762 -1.06439,0 -2.0796443,-0.411835 -2.8399208,-1.136676 l 0.8258855,-1.006452 c 0.4204973,-0.105901 1.0520743,-0.340636 1.8047643,-0.677257 0.7738,-0.346063 1.579521,-0.757694 2.321516,-1.187848 0.189116,-0.109636 0.368678,-0.217257 0.539671,-0.322886 0.436916,-0.269896 0.901385,-0.594707 1.296503,-0.950171 z m -1.653728,1.6517 c -0.261807,0.151308 -0.530572,0.299893 -0.802969,0.444238 l -0.174706,0.09265 v 2.231946 h 0.977675 z"
     fill="currentColor"
     id="path1-7"
     style="stroke-width:0.0262618;fill:#ffffff;fill-opacity:1" /></svg>
