<?xml version="1.0" encoding="UTF-8" standalone="no"?>
<svg
   width="48"
   height="48"
   viewBox="0 0 48 48"
   fill="none"
   version="1.1"
   id="svg10"
   sodipodi:docname="framework-white-v4.svg"
   inkscape:version="1.4.2 (ebf0e940d0, 2025-05-08)"
   xmlns:inkscape="http://www.inkscape.org/namespaces/inkscape"
   xmlns:sodipodi="http://sodipodi.sourceforge.net/DTD/sodipodi-0.dtd"
   xmlns="http://www.w3.org/2000/svg"
   xmlns:svg="http://www.w3.org/2000/svg">
  <defs
     id="defs10" />
  <sodipodi:namedview
     id="namedview10"
     pagecolor="#ffffff"
     bordercolor="#000000"
     borderopacity="0.25"
     inkscape:showpageshadow="2"
     inkscape:pageopacity="0.0"
     inkscape:pagecheckerboard="0"
     inkscape:deskcolor="#d1d1d1"
     inkscape:zoom="7.5007501"
     inkscape:cx="24.26424"
     inkscape:cy="53.79462"
     inkscape:window-width="1920"
     inkscape:window-height="1208"
     inkscape:window-x="0"
     inkscape:window-y="0"
     inkscape:window-maximized="1"
     inkscape:current-layer="svg10" />
  <path
     d="M 43.277896,18.951413 40.22022,17.138117 C 38.78868,16.28621 37.903828,14.715656 37.903828,13.016583 V 9.3900174 c 0,-0.742448 -0.328924,-1.4420531 -0.889539,-1.9084652 C 35.346502,6.0966052 33.470193,4.9734124 31.441074,4.1690944 30.764611,3.9025755 30.009534,3.9549275 29.384098,4.3261512 l -3.062229,1.8180382 c -1.43154,0.8519195 -3.196689,0.8519195 -4.632784,0 L 18.626723,4.3261512 C 18.001287,3.9549275 17.241523,3.8978161 16.569787,4.1690944 14.535993,4.9734124 12.664343,6.0966052 11.001162,7.4767977 10.440601,7.9431966 10.111678,8.6428149 10.111678,9.385263 v 3.626565 c 0,1.699061 -0.880232,3.269627 -2.316405,4.121534 L 4.737638,18.946593 C 4.112207,19.317836 3.68599,19.960415 3.574803,20.693261 3.403391,21.773646 3.32,22.877869 3.32,24.000976 c 0,1.123243 0.0834,2.227331 0.250171,3.302895 0.111185,0.732979 0.537404,1.380246 1.162833,1.751489 l 3.057635,1.813231 c 1.43154,0.851906 2.316405,2.422462 2.316405,4.121588 v 3.626593 c 0,0.742354 0.328923,1.441986 0.889485,1.908453 1.66318,1.38011 3.539464,2.503352 5.568624,3.307715 0.67637,0.266513 1.431581,0.214147 2.057017,-0.157097 l 3.062227,-1.818052 c 1.431541,-0.851904 3.196558,-0.851904 4.632785,0 l 3.062228,1.818052 c 0.625436,0.371244 1.385201,0.42361 2.056975,0.157097 2.029255,-0.804363 3.905431,-1.927605 5.568664,-3.307715 0.560615,-0.466467 0.889537,-1.166099 0.889537,-1.908453 v -3.626593 c 0,-1.699126 0.884854,-3.269682 2.316393,-4.121588 L 43.26852,29.05536 c 0.625437,-0.371243 1.051724,-1.013689 1.162883,-1.751489 0.162185,-1.075564 0.250176,-2.179652 0.250176,-3.302895 0,-1.123107 -0.08343,-2.22733 -0.250176,-3.302894 -0.106604,-0.732979 -0.528206,-1.375424 -1.153507,-1.746669 z M 24.005477,36.770194 c -6.861187,0 -12.425214,-5.71598 -12.425214,-12.764397 0,-7.048535 5.564027,-12.764422 12.425214,-12.764422 6.861051,0 12.425026,5.715887 12.425026,12.764422 0,7.048417 -5.563975,12.764397 -12.425026,12.764397 z"
     fill="white"
     id="path10"
     style="display:inline;fill:#ffffff;stroke-width:1.33927" />
</svg>
